<svg xmlns="http://www.w3.org/2000/svg" width="850" height="848"><defs/><path fill="none" d="M-1-1h802v602H-1z"/><g><g fill="#d2151c"><path d="M308.2 65c-6.8.4-12.5.9-12.7 1.1-.8.9-6.6 32.1-9.4 50.9-4.9 33.4-8.6 78.1-7.9 96l.3 8.5 6.5.2c20.4.8 57.6 6.8 79.3 12.9 18 5 38.5 11.8 57.2 18.9 81.8 31.3 112.2 38.7 158 38.7 41.2-.1 71.8-6.4 102-21.2 22-10.7 37.8-22.4 57.5-42.7 11.3-11.5 24-26.2 24-27.6 0-.3-2.8.3-6.2 1.4-19.9 5.9-48.1 3.7-80.3-6.3-29.3-9.1-51.5-19-130.5-58.3-80.5-40-100.6-49-132-59-34-10.9-71.9-15.7-105.8-13.5zM236.5 80.6c-37.8 14.8-69.4 37.7-93.8 67.9-20.2 25-35.2 54.8-42.6 84.5-7 28.4-7.9 64.3-2.5 94.2l1.7 9.1 4.2-9c2.3-4.9 7-13.3 10.4-18.7 19.2-30.6 42.6-52.2 73.1-67.5 13.4-6.8 20.1-9.2 36.3-13.5l11.8-3.1.3-36c.3-33.7.5-37.5 3.5-59.5 1.7-12.9 4.2-28.7 5.6-35 1.4-6.3 2.8-12.7 3.2-14.3.7-3.5-.1-3.5-11.2.9z"/><path d="M763.5 241.2c-28 43.5-66.3 71.5-115.5 84.1-18.7 4.8-31.5 6.2-58 6.2-47-.1-72.8-6.2-144.5-34.5-92.9-36.6-110.7-42.8-145.6-49.9-5.2-1.1-12.2-2.3-15.6-2.7l-6.3-.7v11.4c0 27.3 4.2 68.1 10.5 101.4 2.9 15.5 7.8 36.2 8.7 37 .2.1 4.8 1 10.3 1.9 18.6 3.2 29.3 6.2 92 26.1 62.3 19.7 123 24.8 167 14.1 22.4-5.5 48.4-16.3 68-28.1 50.5-30.5 93.9-79.3 119.3-134.2 8-17.2 16.8-40 15.9-40.9-.2-.2-3 3.7-6.2 8.8zM224 248.4c-31 8.3-56.9 23.2-80.2 46.3-15.2 14.9-26.3 30.5-35.5 49.9l-4.6 9.8 2.7 8.5c5.3 16.6 15 37.8 23.7 51.8 11.4 18.2 28.1 37.8 41.4 48.3 5.3 4.2 20.9 15 21.8 15 .1 0 .1-6-.1-13.3-.6-19.4 2.5-30.3 12.2-43.5 11.2-15.2 34.4-26.1 58.9-27.9 7.5-.5 8.7-.8 8.2-2.2-15.7-38.9-27.8-87.1-33.7-134.6-1.2-9.6-1.4-10-3.8-10.2-1.4-.1-6.3.8-11 2.1zM603 541.9c-6.7 1.4-13.1 5-18.4 10.4-11.3 11.3-11.8 14.2-11.4 61.7l.3 37.5 3.2 6.7c9.2 19.4 30.4 27.3 49.8 18.4 11-5 19.2-16 21.5-28.7.6-3.1.9-13.2.8-22.5l-.3-16.9-18.7-.3-18.8-.2v24h14v7.4c0 8.5-2.2 12.9-8 15.8-6.6 3.4-13.3 1.4-18.4-5.5-2-2.7-2.1-4.2-2.4-35.5-.2-18-.1-34.6.3-37 .5-3.2 1.7-5.4 4.6-8.3 3.6-3.6 4.3-3.9 9.3-3.9 4.4 0 6 .5 8.5 2.6 4.5 3.8 5.4 6 6 14.4l.6 7.5 9.5.3c5.2.2 10.6 0 11.9-.3 2.3-.6 2.4-.8 1.8-9.3-1.1-17.9-9.8-30.8-24.5-36.5-4.9-2-16.2-2.9-21.2-1.8zM220.7 543.7c-.4.3-.7 30.7-.7 67.5V678h20.8c23.1 0 28-.8 36.4-6.2 6.5-4.1 11.5-9.9 15.2-17.7l3.1-6.6.3-35.5c.3-33.8.2-35.7-1.8-42-4-12.3-12.8-21.2-24.9-25-5.5-1.7-9.1-2-27-2-11.4 0-21.1.3-21.4.7zm44.7 25.2c1.5 1 3.7 3.2 4.7 4.7 1.8 2.7 1.9 5.3 1.9 35.7 0 30.6-.1 33-2 36.6-3.1 6.3-7.7 8.4-17.9 8.5l-8.6.1-.2-42.5c-.2-23.4-.1-43.1.2-43.8.3-.8 3.2-1.2 9.7-1.2 7.4 0 9.9.4 12.2 1.9zM311.8 607.7c-.2 35.7-.1 66 .1 67.5l.3 2.8H335v-46.6l3-4.7c1.6-2.6 3.3-4.7 3.7-4.7.5 0 6.6 12.6 13.7 28l12.8 28H393.9l-2.8-6.3c-1.6-3.4-5.5-11.8-8.8-18.7-17.2-36.1-25.3-53.8-25.3-55.1 0-.9 7.4-13.4 16.5-27.8s16.5-26.4 16.5-26.7c0-.2-5.3-.4-11.8-.4h-11.9l-14.7 22.5c-8.2 12.4-15.2 22.2-15.7 21.9-.5-.3-.9-10.4-.9-22.5V543h-22.9l-.3 64.7zM403.7 543.7c-.4.3-.7 30.7-.7 67.5V678h23v-57h9.4c10.5 0 14 1.5 18.3 7.9 2.2 3.3 2.3 4.1 2.3 26.2V678h24v-22.9c0-25.6-1.1-31.8-7-39.9-1.6-2.3-3-4.5-3-4.9 0-.4 1.1-1.8 2.4-3.2 3.6-3.8 7.3-11.8 8.7-18.9 2.9-15.2-4.8-31.6-18.6-39.7-7.6-4.5-14.2-5.5-37-5.5-11.7 0-21.5.3-21.8.7zm46.2 24.8c1.6.8 4 2.8 5.5 4.5 3.5 4.2 3.7 12.1.4 17-3.9 5.6-7.8 7-19.5 7H426v-30h10.5c7.4 0 11.5.5 13.4 1.5zM496.9 603.7c-.2 33.5-.2 63.8-.1 67.5l.4 6.8h63.9l-.3-11.3-.3-11.2-20-.5-20-.5-.3-16.7-.2-16.8 20.2-.2 20.3-.3.3-9.5c.5-15.4 2.5-14-20.8-14h-20v-30h39.8l.4-6.8c.2-3.7.2-9.1 0-12l-.4-5.2h-62.6l-.3 60.7zM222.3 697.7c-3.9.7-8.1 5.9-8.8 10.6-1.5 9.6 3.4 17.6 12 19.8l4.7 1.2-.7 4.6c-1.5 10.2-7.1 20.5-13.6 25.1-4.7 3.4-12.9 4-15.8 1.1-3-3-2.7-7.8 1.4-26 3.8-16.9 4.3-23 2-28.4-2.2-5.3-5.9-7.7-11.7-7.7-6.2 0-10.7 1.9-14.1 5.9-3.2 3.9-3.7 9.1-.9 9.1 1 0 3.3-1.1 5.2-2.5 4.3-3.1 5.5-3.1 7.6 0 2.2 3.4 1.5 9.6-3.2 28.5-5.4 21.9-4.3 28.7 5.6 33.7 3.3 1.7 6.1 2.3 11.1 2.3 20.1 0 31.8-12.6 36-38.6 1.1-6.9 1.6-8.3 4.6-10.9 1.8-1.7 3.4-4.1 3.6-5.5.2-2.2-.2-2.5-3.3-2.5h-3.5l-.6-6.3c-1.1-11.3-6.7-15.6-17.6-13.5zm8.5 14.1c.2 3-.1 5.2-.7 5.2-1.6 0-4.1-4.3-4.1-7.1 0-3 .8-4.1 3-3.7 1.1.2 1.6 1.8 1.8 5.6zM318.3 699.2c-2.9.6-6 2.5-9.8 6-9 8.2-15.3 23.3-18.2 43.3-.7 5.6-1.1 6.2-5.7 9.6-2.7 2.1-6.8 4.3-9.2 4.9-7.8 2.2-15.4-.9-15.4-6.4 0-2 1.3-2.8 8.8-6 10.7-4.4 14.2-7.7 14.9-14 .5-4 .2-4.8-2.5-7.6-2.7-2.6-3.7-3-8.6-3-14.4 0-25.9 12.9-27.3 30.5-.4 4.9 0 6.8 1.9 10.4 3.2 6.1 7.6 8.2 16.9 8.2 9.5 0 16.9-2.4 22.5-7.4l4.6-4 3.6 4.1c2.1 2.3 5.4 4.9 7.4 5.7 7.4 3 19.7 1 23.7-3.8 2.1-2.7 3.7-2 4.7 2 .7 3.2 1.4 3.9 3.8 4.1 4 .5 8.6-1.7 9.7-4.5.5-1.3.9-5.6.9-9.4 0-3.8.3-6.9.8-6.9.4 0 2.4 3.4 4.5 7.5 4.9 9.5 8.3 12.5 14.4 12.5 5.3 0 9.9-2 14.2-6.2l3.1-3 4.4 4c5 4.6 12.8 6.8 19.9 5.7 5.7-1 7.5-1.8 12.7-5.6 3.5-2.5 5.5-3.3 9.5-3.4 2.7-.1 6.2-.5 7.8-.9 2.6-.8 2.7-.7 2.7 3.3 0 2.8.6 4.7 2 6.1 2.1 2.1 3.4 1.9 10.1-1.6 3.4-1.7 3.3-.3 1.3-14.8-.5-3.5-.1-5.5 1.8-9.8 3.4-7.2 7.5-12 10.2-11.6 2.1.3 2.1.6 1.7 17.4-.4 18.6.2 21.4 4.4 21.4 3.6 0 9.4-3.1 10.1-5.3.3-1.1.1-4.5-.6-7.6-1-5-.9-6.2 1-11.3 2.2-6 6.8-11.8 9.3-11.8 3.5 0 4 2.6 2.7 11.9-1.5 10.7-1 18.4 1.5 21.1 3.4 3.8 11.9 2 19.4-4 4.2-3.2 5.1-3 5.1 1.1 0 1.5.3 3.4.6 4.3.9 2.4 6.5 2 10.5-.7 3.7-2.5 3.7-2.7 2.4-14.5-.7-5.8-.6-6.7 2.5-12.7 3.9-7.6 6-9.8 9.2-9.3 2.6.3 2.5-1.2 1.7 22.3-.1 6.6 0 13 .5 14.2 1 3.1 6.2 3.1 10.7 0 3.6-2.5 3.6-2.3 2.4-13.2-.6-5.4-.4-6.6 2.2-11.4 3.1-6 7.1-9.5 9.5-8.6 2.6 1 2.8 2.8 1.2 12.2-1.8 11-.7 19.1 3 21.5 3.4 2.3 11.8.1 17.4-4.7l3.4-2.8 2.4 2.6c4 4.4 8 5.9 15.5 5.9 8.9 0 16.4-2.3 22.2-6.7l4.7-3.6v3c0 1.6.5 4.2 1 5.7.9 2.4 1.4 2.6 4.9 2.1 2.1-.2 5-1.3 6.5-2.2l2.7-1.8-.7-9.3c-.7-9.2-.6-9.5 2.5-15.9 3.6-7.3 6.6-9.8 10.8-9.3 2.6.3 2.8.6 2.7 4.8 0 2.5-.7 7.9-1.4 12-2.3 13.2.3 21 7 21 5 0 16.6-6.4 19.5-10.8 2.7-4.1 4.1-9.2 3.1-11.7-.5-1.3-2-.4-7.3 4.4-10 9-11.4 8.3-8.3-3.8 2.5-10 2.9-18 1.1-21.4-3-5.6-13.7-7.5-21.1-3.7l-3.9 2-2.1-3c-3-4.2-6.3-4-9.5.7-3 4.5-6.5 15.1-6.5 19.9 0 4.1-4.3 9.3-10.8 13.2-3.6 2-6 2.6-10.5 2.7-5.2 0-6.1-.3-8.3-2.9-2.7-3-2.8-5.4-.4-6.7.8-.4 5.4-2.6 10.2-4.8 9.6-4.3 11.8-6.9 11.8-14 0-8.7-10.8-12-21.8-6.5-8 4-14.3 12.9-15.8 22.3-.5 3.1-1.7 5.1-5 8.1-4.1 3.8-7.4 5.1-7.4 3.1 0-.6.9-4.7 2-9.3 2.7-11.1 2.6-16-.3-19.3-4-4.7-13.8-5-19.8-.6-3.7 2.7-4.5 2.7-5.3-.4-1.5-6.1-12.3-8.5-18.7-4.1l-3.5 2.4-2.8-3.4c-2.1-2.7-3.4-3.4-5.4-3.2-3.6.4-8.5 10-10.2 19.9-1.2 7-1.6 7.7-6.9 13.1-8.2 8.6-9.6 7.6-6.6-4.7.8-3.3 1.5-8.6 1.5-11.8 0-4.9-.4-6.1-2.5-8.1-4.4-4.1-13.5-3.8-19.6.4-3.5 2.5-3.8 2.5-4.9-.5-1.3-3.3-6.7-6.5-11-6.5-3.3 0-4.4.5-9.8 3.7-1.8 1.1-2.2.9-4.1-2.2-2.3-4-5.7-4.7-8.4-1.7-2.8 3.1-6.6 12.5-7.6 19.2-.8 5.3-1.6 7-4.1 9.2-1.7 1.6-3.9 2.8-5.1 2.8-1.8 0-1.9-.4-1.2-3.8 2.1-9.7-.5-16.1-7.2-17.4-2.8-.6-4.7-.4-7.3.9-9 4.5-10.2 14.3-3 24.5 1.5 2.1.9 2.7-3.4 3.5-4.7.7-10.3-2-11.8-5.8-1.9-4.6-.7-12.4 2.6-17.1 3.7-5.3 8.7-7.8 17-8.6 8.2-.8 9.2-2.5 3.2-5.2-5.1-2.3-15.4-2.6-21.1-.6-8.8 3.2-16.1 12.4-17.3 22.1-.6 4.1-1.5 5.8-4.9 9.3-3.3 3.3-5 4.2-7.6 4.2-4.3 0-7.2-2-8.9-6-1.5-3.6-1-4.2 4.7-5.9 12.1-3.4 16.3-17.5 6.9-23.2-5.8-3.5-17.3-1.6-21.5 3.5-.8.9-1.7 1.6-2.2 1.6-1.7 0 .4-5.3 4.3-11.4 6.4-9.9 6.8-16.4 1.3-21.6-2.1-2-2.8-2.2-5-1.2-5 2.3-11.2 18.8-15.9 42.6-2.1 10.5-2.8 12.2-5.8 15.3-1.8 1.9-4.5 4.1-6 4.9-2.8 1.5-8.5 1.9-11.3.8-2.4-1-4.5-5.8-4.5-10.6 0-4 .6-5 8.1-13.3 16-17.6 19.9-23.6 19.9-30.5 0-5.4-1.2-7.5-5.1-8.9-3.6-1.2-3.8-1.2-9.6.1zm3.5 12.2c.4 2.8-3.4 8.6-11.2 17.1l-3.7 4 .6-3.5c1.5-8.3 9.9-21.7 13-20.7.5.2 1.1 1.6 1.3 3.1zm-51.1 25.2c.8 2.2-.6 4.4-4.7 7.1-4 2.8-5.1 2.2-4-1.9 1.7-5.9 7.2-9.1 8.7-5.2zm350.6-.4c.7 2.2-1.2 5.2-4.8 7.5-1.9 1.3-3.7 2.3-4 2.3-1.2 0-.3-4.8 1.5-7.8 2-3.3 6.4-4.5 7.3-2zm-259.7 2.3c1.8 4.7-4.6 10.5-11.6 10.5-3 0-3 0-1.6-2.9 3-5.7 6.6-9.1 9.7-9.1 1.7 0 3.2.6 3.5 1.5zm61.9 7.4c.5 1.8-.9 7.1-2 7.1-.3 0-1-1.2-1.6-2.6-1.1-3.1-.3-6.4 1.6-6.4.8 0 1.6.8 2 1.9z"/></g></g></svg>