<?xml version="1.0" encoding="utf-8"?>
<!-- Generator: Adobe Illustrator 24.0.2, SVG Export Plug-In . SVG Version: 6.00 Build 0)  -->
<svg version="1.1" id="Layer_1" xmlns="http://www.w3.org/2000/svg" xmlns:xlink="http://www.w3.org/1999/xlink" x="0px" y="0px"
	 viewBox="0 0 850 848" style="enable-background:new 0 0 850 848;" xml:space="preserve">
<style type="text/css">
	.st0{fill:none;}
	.st1{fill:#D2151C;}
</style>
<path class="st0" d="M-1-1h802v602H-1V-1z"/>
<g>
	<g>
		<path class="st1" d="M308.2,65c-6.8,0.4-12.5,0.9-12.7,1.1c-0.8,0.9-6.6,32.1-9.4,50.9c-4.9,33.4-8.6,78.1-7.9,96l0.3,8.5l6.5,0.2
			c20.4,0.8,57.6,6.8,79.3,12.9c18,5,38.5,11.8,57.2,18.9c81.8,31.3,112.2,38.7,158,38.7c41.2-0.1,71.8-6.4,102-21.2
			c22-10.7,37.8-22.4,57.5-42.7c11.3-11.5,24-26.2,24-27.6c0-0.3-2.8,0.3-6.2,1.4c-19.9,5.9-48.1,3.7-80.3-6.3
			c-29.3-9.1-51.5-19-130.5-58.3c-80.5-40-100.6-49-132-59C380,67.6,342.1,62.8,308.2,65L308.2,65z M236.5,80.6
			c-37.8,14.8-69.4,37.7-93.8,67.9c-20.2,25-35.2,54.8-42.6,84.5c-7,28.4-7.9,64.3-2.5,94.2l1.7,9.1l4.2-9c2.3-4.9,7-13.3,10.4-18.7
			c19.2-30.6,42.6-52.2,73.1-67.5c13.4-6.8,20.1-9.2,36.3-13.5l11.8-3.1l0.3-36c0.3-33.7,0.5-37.5,3.5-59.5
			c1.7-12.9,4.2-28.7,5.6-35c1.4-6.3,2.8-12.7,3.2-14.3C248.4,76.2,247.6,76.2,236.5,80.6L236.5,80.6z"/>
		<path class="st1" d="M763.5,241.2c-28,43.5-66.3,71.5-115.5,84.1c-18.7,4.8-31.5,6.2-58,6.2c-47-0.1-72.8-6.2-144.5-34.5
			c-92.9-36.6-110.7-42.8-145.6-49.9c-5.2-1.1-12.2-2.3-15.6-2.7l-6.3-0.7v11.4c0,27.3,4.2,68.1,10.5,101.4
			c2.9,15.5,7.8,36.2,8.7,37c0.2,0.1,4.8,1,10.3,1.9c18.6,3.2,29.3,6.2,92,26.1c62.3,19.7,123,24.8,167,14.1
			c22.4-5.5,48.4-16.3,68-28.1c50.5-30.5,93.9-79.3,119.3-134.2c8-17.2,16.8-40,15.9-40.9C769.5,232.2,766.7,236.1,763.5,241.2z
			 M224,248.4c-31,8.3-56.9,23.2-80.2,46.3c-15.2,14.9-26.3,30.5-35.5,49.9l-4.6,9.8l2.7,8.5c5.3,16.6,15,37.8,23.7,51.8
			c11.4,18.2,28.1,37.8,41.4,48.3c5.3,4.2,20.9,15,21.8,15c0.1,0,0.1-6-0.1-13.3c-0.6-19.4,2.5-30.3,12.2-43.5
			c11.2-15.2,34.4-26.1,58.9-27.9c7.5-0.5,8.7-0.8,8.2-2.2c-15.7-38.9-27.8-87.1-33.7-134.6c-1.2-9.6-1.4-10-3.8-10.2
			C233.6,246.2,228.7,247.1,224,248.4L224,248.4z M603,541.9c-6.7,1.4-13.1,5-18.4,10.4c-11.3,11.3-11.8,14.2-11.4,61.7l0.3,37.5
			l3.2,6.7c9.2,19.4,30.4,27.3,49.8,18.4c11-5,19.2-16,21.5-28.7c0.6-3.1,0.9-13.2,0.8-22.5l-0.3-16.9l-18.7-0.3L611,608v24h14v7.4
			c0,8.5-2.2,12.9-8,15.8c-6.6,3.4-13.3,1.4-18.4-5.5c-2-2.7-2.1-4.2-2.4-35.5c-0.2-18-0.1-34.6,0.3-37c0.5-3.2,1.7-5.4,4.6-8.3
			c3.6-3.6,4.3-3.9,9.3-3.9c4.4,0,6,0.5,8.5,2.6c4.5,3.8,5.4,6,6,14.4l0.6,7.5l9.5,0.3c5.2,0.2,10.6,0,11.9-0.3
			c2.3-0.6,2.4-0.8,1.8-9.3c-1.1-17.9-9.8-30.8-24.5-36.5C619.3,541.7,608,540.8,603,541.9L603,541.9z M220.7,543.7
			c-0.4,0.3-0.7,30.7-0.7,67.5V678h20.8c23.1,0,28-0.8,36.4-6.2c6.5-4.1,11.5-9.9,15.2-17.7l3.1-6.6l0.3-35.5
			c0.3-33.8,0.2-35.7-1.8-42c-4-12.3-12.8-21.2-24.9-25c-5.5-1.7-9.1-2-27-2C230.7,543,221,543.3,220.7,543.7L220.7,543.7z
			 M265.4,568.9c1.5,1,3.7,3.2,4.7,4.7c1.8,2.7,1.9,5.3,1.9,35.7c0,30.6-0.1,33-2,36.6c-3.1,6.3-7.7,8.4-17.9,8.5l-8.6,0.1
			l-0.2-42.5c-0.2-23.4-0.1-43.1,0.2-43.8c0.3-0.8,3.2-1.2,9.7-1.2C260.6,567,263.1,567.4,265.4,568.9z M311.8,607.7
			c-0.2,35.7-0.1,66,0.1,67.5l0.3,2.8H335v-46.6l3-4.7c1.6-2.6,3.3-4.7,3.7-4.7c0.5,0,6.6,12.6,13.7,28l12.8,28h25.7l-2.8-6.3
			c-1.6-3.4-5.5-11.8-8.8-18.7c-17.2-36.1-25.3-53.8-25.3-55.1c0-0.9,7.4-13.4,16.5-27.8s16.5-26.4,16.5-26.7
			c0-0.2-5.3-0.4-11.8-0.4h-11.9l-14.7,22.5c-8.2,12.4-15.2,22.2-15.7,21.9S335,577,335,564.9V543h-22.9L311.8,607.7L311.8,607.7z
			 M403.7,543.7c-0.4,0.3-0.7,30.7-0.7,67.5V678h23v-57h9.4c10.5,0,14,1.5,18.3,7.9c2.2,3.3,2.3,4.1,2.3,26.2V678h24v-22.9
			c0-25.6-1.1-31.8-7-39.9c-1.6-2.3-3-4.5-3-4.9s1.1-1.8,2.4-3.2c3.6-3.8,7.3-11.8,8.7-18.9c2.9-15.2-4.8-31.6-18.6-39.7
			c-7.6-4.5-14.2-5.5-37-5.5C413.8,543,404,543.3,403.7,543.7L403.7,543.7z M449.9,568.5c1.6,0.8,4,2.8,5.5,4.5
			c3.5,4.2,3.7,12.1,0.4,17c-3.9,5.6-7.8,7-19.5,7H426v-30h10.5C443.9,567,448,567.5,449.9,568.5L449.9,568.5z M496.9,603.7
			c-0.2,33.5-0.2,63.8-0.1,67.5l0.4,6.8h63.9l-0.3-11.3l-0.3-11.2l-20-0.5l-20-0.5l-0.3-16.7L520,621l20.2-0.2l20.3-0.3l0.3-9.5
			c0.5-15.4,2.5-14-20.8-14h-20v-30h39.8l0.4-6.8c0.2-3.7,0.2-9.1,0-12l-0.4-5.2h-62.6L496.9,603.7z M222.3,697.7
			c-3.9,0.7-8.1,5.9-8.8,10.6c-1.5,9.6,3.4,17.6,12,19.8l4.7,1.2l-0.7,4.6c-1.5,10.2-7.1,20.5-13.6,25.1c-4.7,3.4-12.9,4-15.8,1.1
			c-3-3-2.7-7.8,1.4-26c3.8-16.9,4.3-23,2-28.4c-2.2-5.3-5.9-7.7-11.7-7.7c-6.2,0-10.7,1.9-14.1,5.9c-3.2,3.9-3.7,9.1-0.9,9.1
			c1,0,3.3-1.1,5.2-2.5c4.3-3.1,5.5-3.1,7.6,0c2.2,3.4,1.5,9.6-3.2,28.5c-5.4,21.9-4.3,28.7,5.6,33.7c3.3,1.7,6.1,2.3,11.1,2.3
			c20.1,0,31.8-12.6,36-38.6c1.1-6.9,1.6-8.3,4.6-10.9c1.8-1.7,3.4-4.1,3.6-5.5c0.2-2.2-0.2-2.5-3.3-2.5h-3.5l-0.6-6.3
			C238.8,699.9,233.2,695.6,222.3,697.7L222.3,697.7z M230.8,711.8c0.2,3-0.1,5.2-0.7,5.2c-1.6,0-4.1-4.3-4.1-7.1c0-3,0.8-4.1,3-3.7
			C230.1,706.4,230.6,708,230.8,711.8z M318.3,699.2c-2.9,0.6-6,2.5-9.8,6c-9,8.2-15.3,23.3-18.2,43.3c-0.7,5.6-1.1,6.2-5.7,9.6
			c-2.7,2.1-6.8,4.3-9.2,4.9c-7.8,2.2-15.4-0.9-15.4-6.4c0-2,1.3-2.8,8.8-6c10.7-4.4,14.2-7.7,14.9-14c0.5-4,0.2-4.8-2.5-7.6
			c-2.7-2.6-3.7-3-8.6-3c-14.4,0-25.9,12.9-27.3,30.5c-0.4,4.9,0,6.8,1.9,10.4c3.2,6.1,7.6,8.2,16.9,8.2c9.5,0,16.9-2.4,22.5-7.4
			l4.6-4l3.6,4.1c2.1,2.3,5.4,4.9,7.4,5.7c7.4,3,19.7,1,23.7-3.8c2.1-2.7,3.7-2,4.7,2c0.7,3.2,1.4,3.9,3.8,4.1
			c4,0.5,8.6-1.7,9.7-4.5c0.5-1.3,0.9-5.6,0.9-9.4c0-3.8,0.3-6.9,0.8-6.9c0.4,0,2.4,3.4,4.5,7.5c4.9,9.5,8.3,12.5,14.4,12.5
			c5.3,0,9.9-2,14.2-6.2l3.1-3l4.4,4c5,4.6,12.8,6.8,19.9,5.7c5.7-1,7.5-1.8,12.7-5.6c3.5-2.5,5.5-3.3,9.5-3.4
			c2.7-0.1,6.2-0.5,7.8-0.9c2.6-0.8,2.7-0.7,2.7,3.3c0,2.8,0.6,4.7,2,6.1c2.1,2.1,3.4,1.9,10.1-1.6c3.4-1.7,3.3-0.3,1.3-14.8
			c-0.5-3.5-0.1-5.5,1.8-9.8c3.4-7.2,7.5-12,10.2-11.6c2.1,0.3,2.1,0.6,1.7,17.4c-0.4,18.6,0.2,21.4,4.4,21.4
			c3.6,0,9.4-3.1,10.1-5.3c0.3-1.1,0.1-4.5-0.6-7.6c-1-5-0.9-6.2,1-11.3c2.2-6,6.8-11.8,9.3-11.8c3.5,0,4,2.6,2.7,11.9
			c-1.5,10.7-1,18.4,1.5,21.1c3.4,3.8,11.9,2,19.4-4c4.2-3.2,5.1-3,5.1,1.1c0,1.5,0.3,3.4,0.6,4.3c0.9,2.4,6.5,2,10.5-0.7
			c3.7-2.5,3.7-2.7,2.4-14.5c-0.7-5.8-0.6-6.7,2.5-12.7c3.9-7.6,6-9.8,9.2-9.3c2.6,0.3,2.5-1.2,1.7,22.3c-0.1,6.6,0,13,0.5,14.2
			c1,3.1,6.2,3.1,10.7,0c3.6-2.5,3.6-2.3,2.4-13.2c-0.6-5.4-0.4-6.6,2.2-11.4c3.1-6,7.1-9.5,9.5-8.6c2.6,1,2.8,2.8,1.2,12.2
			c-1.8,11-0.7,19.1,3,21.5c3.4,2.3,11.8,0.1,17.4-4.7l3.4-2.8l2.4,2.6c4,4.4,8,5.9,15.5,5.9c8.9,0,16.4-2.3,22.2-6.7l4.7-3.6v3
			c0,1.6,0.5,4.2,1,5.7c0.9,2.4,1.4,2.6,4.9,2.1c2.1-0.2,5-1.3,6.5-2.2l2.7-1.8l-0.7-9.3c-0.7-9.2-0.6-9.5,2.5-15.9
			c3.6-7.3,6.6-9.8,10.8-9.3c2.6,0.3,2.8,0.6,2.7,4.8c0,2.5-0.7,7.9-1.4,12c-2.3,13.2,0.3,21,7,21c5,0,16.6-6.4,19.5-10.8
			c2.7-4.1,4.1-9.2,3.1-11.7c-0.5-1.3-2-0.4-7.3,4.4c-10,9-11.4,8.3-8.3-3.8c2.5-10,2.9-18,1.1-21.4c-3-5.6-13.7-7.5-21.1-3.7
			l-3.9,2l-2.1-3c-3-4.2-6.3-4-9.5,0.7c-3,4.5-6.5,15.1-6.5,19.9c0,4.1-4.3,9.3-10.8,13.2c-3.6,2-6,2.6-10.5,2.7
			c-5.2,0-6.1-0.3-8.3-2.9c-2.7-3-2.8-5.4-0.4-6.7c0.8-0.4,5.4-2.6,10.2-4.8c9.6-4.3,11.8-6.9,11.8-14c0-8.7-10.8-12-21.8-6.5
			c-8,4-14.3,12.9-15.8,22.3c-0.5,3.1-1.7,5.1-5,8.1c-4.1,3.8-7.4,5.1-7.4,3.1c0-0.6,0.9-4.7,2-9.3c2.7-11.1,2.6-16-0.3-19.3
			c-4-4.7-13.8-5-19.8-0.6c-3.7,2.7-4.5,2.7-5.3-0.4c-1.5-6.1-12.3-8.5-18.7-4.1l-3.5,2.4l-2.8-3.4c-2.1-2.7-3.4-3.4-5.4-3.2
			c-3.6,0.4-8.5,10-10.2,19.9c-1.2,7-1.6,7.7-6.9,13.1c-8.2,8.6-9.6,7.6-6.6-4.7c0.8-3.3,1.5-8.6,1.5-11.8c0-4.9-0.4-6.1-2.5-8.1
			c-4.4-4.1-13.5-3.8-19.6,0.4c-3.5,2.5-3.8,2.5-4.9-0.5c-1.3-3.3-6.7-6.5-11-6.5c-3.3,0-4.4,0.5-9.8,3.7c-1.8,1.1-2.2,0.9-4.1-2.2
			c-2.3-4-5.7-4.7-8.4-1.7c-2.8,3.1-6.6,12.5-7.6,19.2c-0.8,5.3-1.6,7-4.1,9.2c-1.7,1.6-3.9,2.8-5.1,2.8c-1.8,0-1.9-0.4-1.2-3.8
			c2.1-9.7-0.5-16.1-7.2-17.4c-2.8-0.6-4.7-0.4-7.3,0.9c-9,4.5-10.2,14.3-3,24.5c1.5,2.1,0.9,2.7-3.4,3.5c-4.7,0.7-10.3-2-11.8-5.8
			c-1.9-4.6-0.7-12.4,2.6-17.1c3.7-5.3,8.7-7.8,17-8.6c8.2-0.8,9.2-2.5,3.2-5.2c-5.1-2.3-15.4-2.6-21.1-0.6
			c-8.8,3.2-16.1,12.4-17.3,22.1c-0.6,4.1-1.5,5.8-4.9,9.3c-3.3,3.3-5,4.2-7.6,4.2c-4.3,0-7.2-2-8.9-6c-1.5-3.6-1-4.2,4.7-5.9
			c12.1-3.4,16.3-17.5,6.9-23.2c-5.8-3.5-17.3-1.6-21.5,3.5c-0.8,0.9-1.7,1.6-2.2,1.6c-1.7,0,0.4-5.3,4.3-11.4
			c6.4-9.9,6.8-16.4,1.3-21.6c-2.1-2-2.8-2.2-5-1.2c-5,2.3-11.2,18.8-15.9,42.6c-2.1,10.5-2.8,12.2-5.8,15.3c-1.8,1.9-4.5,4.1-6,4.9
			c-2.8,1.5-8.5,1.9-11.3,0.8c-2.4-1-4.5-5.8-4.5-10.6c0-4,0.6-5,8.1-13.3c16-17.6,19.9-23.6,19.9-30.5c0-5.4-1.2-7.5-5.1-8.9
			C324.3,697.9,324.1,697.9,318.3,699.2L318.3,699.2z M321.8,711.4c0.4,2.8-3.4,8.6-11.2,17.1l-3.7,4l0.6-3.5
			c1.5-8.3,9.9-21.7,13-20.7C321,708.5,321.6,709.9,321.8,711.4L321.8,711.4z M270.7,736.6c0.8,2.2-0.6,4.4-4.7,7.1
			c-4,2.8-5.1,2.2-4-1.9C263.7,735.9,269.2,732.7,270.7,736.6L270.7,736.6z M621.3,736.2c0.7,2.2-1.2,5.2-4.8,7.5
			c-1.9,1.3-3.7,2.3-4,2.3c-1.2,0-0.3-4.8,1.5-7.8C616,734.9,620.4,733.7,621.3,736.2z M361.6,738.5c1.8,4.7-4.6,10.5-11.6,10.5
			c-3,0-3,0-1.6-2.9c3-5.7,6.6-9.1,9.7-9.1C359.8,737,361.3,737.6,361.6,738.5z M423.5,745.9c0.5,1.8-0.9,7.1-2,7.1
			c-0.3,0-1-1.2-1.6-2.6c-1.1-3.1-0.3-6.4,1.6-6.4C422.3,744,423.1,744.8,423.5,745.9z"/>
	</g>
</g>
</svg>
